<?xml version="1.0" encoding="UTF-8" standalone="no"?>
<!-- Created with Inkscape (http://www.inkscape.org/) -->

<svg
   width="508mm"
   height="285.75mm"
   viewBox="0 0 508 285.75"
   version="1.1"
   id="svg5"
   xml:space="preserve"
   sodipodi:docname="article page.svg"
   inkscape:export-filename="article page.png"
   inkscape:export-xdpi="192.00002"
   inkscape:export-ydpi="192.00002"
   inkscape:version="1.3 (0e150ed6c4, 2023-07-21)"
   xmlns:inkscape="http://www.inkscape.org/namespaces/inkscape"
   xmlns:sodipodi="http://sodipodi.sourceforge.net/DTD/sodipodi-0.dtd"
   xmlns:xlink="http://www.w3.org/1999/xlink"
   xmlns="http://www.w3.org/2000/svg"
   xmlns:svg="http://www.w3.org/2000/svg"><sodipodi:namedview
     id="namedview7"
     pagecolor="#ffffff"
     bordercolor="#000000"
     borderopacity="0.25"
     inkscape:showpageshadow="2"
     inkscape:pageopacity="0.0"
     inkscape:pagecheckerboard="0"
     inkscape:deskcolor="#242424"
     inkscape:document-units="px"
     showgrid="false"
     inkscape:zoom="0.5875"
     inkscape:cx="965.10638"
     inkscape:cy="542.12766"
     inkscape:window-width="1920"
     inkscape:window-height="1011"
     inkscape:window-x="0"
     inkscape:window-y="32"
     inkscape:window-maximized="1"
     inkscape:current-layer="layer1"
     showguides="true"><sodipodi:guide
       position="19.642151,270.93332"
       orientation="1080,0"
       id="guide1"
       inkscape:locked="false" /><sodipodi:guide
       position="488.35785,-14.816681"
       orientation="-1080,0"
       id="guide3"
       inkscape:locked="false" /><inkscape:grid
       id="grid23"
       units="px"
       originx="0"
       originy="0"
       spacingx="0.26458333"
       spacingy="0.26458333"
       empcolor="#0099e5"
       empopacity="0.30196078"
       color="#0099e5"
       opacity="0.14901961"
       empspacing="5"
       dotted="false"
       gridanglex="30"
       gridanglez="30"
       visible="false" /><sodipodi:guide
       position="358.80042,254.51189"
       orientation="961.9347,0"
       id="guide44"
       inkscape:locked="false" /><sodipodi:guide
       position="358.80042,0"
       orientation="0,489.66583"
       id="guide45"
       inkscape:locked="false" /><sodipodi:guide
       position="488.35784,0"
       orientation="-961.9347,0"
       id="guide46"
       inkscape:locked="false" /><sodipodi:guide
       position="488.35784,254.51189"
       orientation="0,-489.66583"
       id="guide47"
       inkscape:locked="false" /><sodipodi:guide
       position="365.27829,241.78629"
       orientation="865.74126,0"
       id="guide48"
       inkscape:locked="false" /><sodipodi:guide
       position="365.27829,12.725586"
       orientation="0,440.69924"
       id="guide49"
       inkscape:locked="false" /><sodipodi:guide
       position="481.87996,12.725586"
       orientation="-865.74126,0"
       id="guide50"
       inkscape:locked="false" /><sodipodi:guide
       position="481.87996,241.78629"
       orientation="0,-440.69924"
       id="guide51"
       inkscape:locked="false" /><sodipodi:guide
       position="36.600075,241.7863"
       orientation="865.74127,0"
       id="guide52"
       inkscape:locked="false" /><sodipodi:guide
       position="36.600075,12.725586"
       orientation="0,1153.6722"
       id="guide53"
       inkscape:locked="false" /><sodipodi:guide
       position="341.8425,12.725586"
       orientation="-865.74127,0"
       id="guide54"
       inkscape:locked="false" /><sodipodi:guide
       position="341.8425,241.7863"
       orientation="0,-1153.6722"
       id="guide55"
       inkscape:locked="false" /><sodipodi:guide
       position="19.64216,254.51189"
       orientation="961.93471,0"
       id="guide56"
       inkscape:locked="false" /><sodipodi:guide
       position="19.64216,0"
       orientation="0,1281.858"
       id="guide57"
       inkscape:locked="false" /><sodipodi:guide
       position="358.80042,0"
       orientation="-961.93471,0"
       id="guide58"
       inkscape:locked="false" /><sodipodi:guide
       position="358.80042,254.51189"
       orientation="0,-1281.858"
       id="guide59"
       inkscape:locked="false" /></sodipodi:namedview><defs
     id="defs2"><linearGradient
       id="swatch17"
       inkscape:swatch="solid"><stop
         style="stop-color:#ffffff;stop-opacity:1;"
         offset="0"
         id="stop17" /></linearGradient><linearGradient
       id="swatch16"
       inkscape:swatch="solid"><stop
         style="stop-color:#0000ff;stop-opacity:1;"
         offset="0"
         id="stop16" /></linearGradient><linearGradient
       id="swatch15"
       inkscape:swatch="solid"><stop
         style="stop-color:#ffffff;stop-opacity:1;"
         offset="0"
         id="stop15" /></linearGradient><linearGradient
       id="swatch9"
       inkscape:swatch="solid"
       inkscape:label="Світлий текст"><stop
         style="stop-color:#ffffff;stop-opacity:1;"
         offset="0"
         id="stop9" /></linearGradient><linearGradient
       id="linearGradient7739"><stop
         style="stop-color:#ffffff;stop-opacity:1;"
         offset="0"
         id="stop7813" /><stop
         style="stop-color:#ffffff;stop-opacity:0;"
         offset="1"
         id="stop7815" /></linearGradient><linearGradient
       id="linearGradient7739-1"><stop
         style="stop-color:#ffffff;stop-opacity:0;"
         offset="0"
         id="stop7737" /><stop
         style="stop-color:#ffffff;stop-opacity:1;"
         offset="1"
         id="stop7735" /></linearGradient><linearGradient
       inkscape:collect="always"
       id="linearGradient4750"><stop
         style="stop-color:#ffffff;stop-opacity:1;"
         offset="0.95886451"
         id="stop4746" /><stop
         style="stop-color:#ffffff;stop-opacity:0;"
         offset="1"
         id="stop4748" /></linearGradient><linearGradient
       id="linearGradient2003"
       inkscape:swatch="solid"><stop
         style="stop-color:#000000;stop-opacity:1;"
         offset="0"
         id="stop2001" /></linearGradient><clipPath
       clipPathUnits="userSpaceOnUse"
       id="clipPath2515"><rect
         style="fill:#000000;stroke-width:2.31201;stroke-linecap:square;stroke-linejoin:round;stroke-miterlimit:14.4;paint-order:stroke fill markers"
         id="rect2517"
         width="334.43661"
         height="334.43661"
         x="-343.97171"
         y="-86.902328"
         transform="matrix(-0.8660254,-0.5,-0.5,0.8660254,0,0)" /></clipPath><filter
       style="color-interpolation-filters:sRGB"
       inkscape:label="Drop Shadow"
       id="filter18236"
       x="-0.079174511"
       y="-0.058725026"
       width="1.1583489"
       height="1.1174462"><feFlood
         flood-opacity="1"
         flood-color="rgb(0,0,0)"
         result="flood"
         id="feFlood18226" /><feComposite
         in="flood"
         in2="SourceGraphic"
         operator="in"
         result="composite1"
         id="feComposite18228" /><feGaussianBlur
         in="composite1"
         stdDeviation="1.3"
         result="blur"
         id="feGaussianBlur18230" /><feOffset
         dx="2.41474e-15"
         dy="0"
         result="offset"
         id="feOffset18232" /><feComposite
         in="SourceGraphic"
         in2="offset"
         operator="over"
         result="composite2"
         id="feComposite18234" /></filter><mask
       maskUnits="userSpaceOnUse"
       id="mask4768"><rect
         style="fill:url(#linearGradient4772);fill-opacity:1;stroke-width:2.55093;stroke-miterlimit:9.1;paint-order:stroke fill markers"
         id="rect4770"
         width="270.93329"
         height="41.173931"
         x="-5.6843419e-14"
         y="229.75938" /></mask><linearGradient
       inkscape:collect="always"
       xlink:href="#linearGradient4750"
       id="linearGradient4772"
       gradientUnits="userSpaceOnUse"
       gradientTransform="matrix(1,0,0,0.24886006,0,203.50883)"
       x1="173.79973"
       y1="271.04337"
       x2="173.79973"
       y2="105.48319" /><radialGradient
       inkscape:collect="always"
       xlink:href="#linearGradient7739-1"
       id="radialGradient7832"
       gradientUnits="userSpaceOnUse"
       gradientTransform="matrix(1,0,0,0.88925639,0,15.494577)"
       cx="135.46666"
       cy="134.91281"
       fx="135.46666"
       fy="134.91281"
       r="165.93407" /><radialGradient
       inkscape:collect="always"
       xlink:href="#linearGradient7739"
       id="radialGradient7838"
       gradientUnits="userSpaceOnUse"
       gradientTransform="matrix(1,0,0,0.88925638,0,15.494577)"
       cx="135.46666"
       cy="134.91281"
       fx="135.46666"
       fy="134.91281"
       r="165.93407" /><filter
       inkscape:collect="always"
       style="color-interpolation-filters:sRGB"
       id="filter1740"
       x="-0.02178153"
       y="-0.024400187"
       width="1.0435631"
       height="1.0488004"><feGaussianBlur
         inkscape:collect="always"
         stdDeviation="3.1079653"
         id="feGaussianBlur1742" /></filter><mask
       maskUnits="userSpaceOnUse"
       id="mask1744"><path
         id="path1746"
         style="color:#000000;fill:url(#radialGradient1748);fill-opacity:1;stroke-width:5.31761;stroke-dasharray:none;paint-order:stroke fill markers;filter:url(#filter1740)"
         d="m 64.283418,-7.6439782 c -0.765179,4.9313751 -1.530289,9.8630838 -2.295467,14.7944468 l -14.646652,-2.27273 c -0.681732,4.393576 -1.363624,8.7870134 -2.045356,13.1805904 4.882208,0.757552 9.764465,1.515182 14.646654,2.27273 -0.765178,4.931375 -1.530287,9.862554 -2.295467,14.793929 4.426882,0.6869 8.853955,1.373956 13.280843,2.060856 0.03334,-0.214611 0.06646,-0.429264 0.09974,-0.643888 0.732072,-4.718003 1.464177,-9.436175 2.196248,-14.154175 4.88124,0.758412 9.762305,1.517933 14.643551,2.276347 0.681733,-4.393576 1.363622,-8.787531 2.045353,-13.181108 -4.881399,-0.757426 -9.762672,-1.5147874 -14.644067,-2.2722124 0.765179,-4.931363 1.530286,-9.8625547 2.295467,-14.7939299 z m 77.693962,2.1073649 c -0.97498,2.9849582 -1.95028,5.96958393 -2.9254,8.9544929 -2.95512,-0.965378 -5.90994,-1.930568 -8.86509,-2.89594794 -0.86908,2.65928494 -1.73765,5.31846794 -2.60656,7.97780794 2.95511,0.965428 5.91043,1.9310814 8.86561,2.8964644 -0.97497,2.984952 -1.95032,5.969566 -2.92541,8.954492 2.67956,0.875367 5.35923,1.750871 8.03879,2.626196 0.0425,-0.130125 0.0837,-0.26045 0.12764,-0.390157 v -0.001 c 0.93305,-2.855727 1.86605,-5.711615 2.79879,-8.567435 2.95442,0.965932 5.90864,1.933377 8.86303,2.899564 0.86908,-2.659286 1.73716,-5.318978 2.60604,-7.9783234 -2.95467,-0.965234 -5.90936,-1.930204 -8.86406,-2.895431 0.97498,-2.984947 1.95032,-5.97009197 2.92541,-8.9550087 -2.67953,-0.875348 -5.3592,-1.7503172 -8.03879,-2.6256802 z m -74.638335,2.0717082 c 2.014741,0.312618 4.029326,0.625307 6.044076,0.937928 -0.765179,4.9313747 -1.530288,9.8630717 -2.295467,14.7944451 l 14.646651,2.272213 c -0.307448,1.981431 -0.614971,3.96291 -0.922425,5.94434 -4.882189,-0.757549 -9.764459,-1.51518 -14.646651,-2.272729 -0.765302,4.932166 -1.530166,9.864345 -2.295467,14.796512 -2.014752,-0.312615 -4.02985,-0.624795 -6.044592,-0.93741 0.765304,-4.932168 1.530682,-9.864348 2.295984,-14.796513 -4.881396,-0.757423 -9.762671,-1.515306 -14.644068,-2.272729 0.307448,-1.981431 0.614972,-3.962395 0.922425,-5.9438234 4.881398,0.757425 9.762668,1.5147864 14.644067,2.2722124 0.765179,-4.9313754 1.530289,-9.8630704 2.295467,-14.7944461 z m 76.112665,0.831474 c 1.21957,0.398405 2.43917,0.796879 3.65869,1.195276 -0.97496,2.9849577 -1.95029,5.9700907 -2.9254,8.9550087 2.95513,0.965375 5.91048,1.930579 8.86561,2.8959474 -0.39174,1.199363 -0.78388,2.398874 -1.17564,3.59823 -2.95511,-0.965414 -5.90995,-1.93109 -8.86509,-2.896464 -0.97522,2.985412 -1.95066,5.971168 -2.92592,8.956559 -1.21952,-0.398403 -2.43917,-0.796867 -3.6587,-1.195276 0.97523,-2.985402 1.9507,-5.97116 2.92592,-8.9565584 -2.9546,-0.965261 -5.90939,-1.930201 -8.86405,-2.895431 0.39183,-1.199334 0.78337,-2.3988747 1.17512,-3.59823 2.95468,0.965231 5.90944,1.930739 8.86406,2.895948 0.97499,-2.984955 1.95031,-5.97008997 2.9254,-8.9550097 z M -13.797091,12.316044 -15.999023,37.280929 c -8.238628,-0.726584 -16.477147,-1.453127 -24.715804,-2.179712 -0.653867,7.414102 -1.30777,14.827954 -1.961638,22.242056 8.238658,0.726584 16.477176,1.453128 24.715804,2.179712 -0.733902,8.321621 -1.467514,16.643258 -2.201416,24.964887 7.470319,0.65882 14.9407215,1.3178 22.4110353,1.97662 0.031992,-0.36273 0.063611,-0.72557 0.095601,-1.08831 v 0.004 L 4.4508911,61.495474 C 12.688102,62.222913 20.925346,62.951858 29.162561,63.67932 29.816428,56.265218 30.469815,48.850852 31.123682,41.436747 22.886377,40.710283 14.649309,39.984016 6.412012,39.257552 L 8.6139448,14.292668 C 1.143631,13.633844 -6.3267757,12.974867 -13.797091,12.316044 Z m 225.180571,2.747119 c -1.06895,3.588503 -2.13805,7.177264 -3.20704,10.765751 -3.55274,-1.058342 -7.10553,-2.116667 -10.65826,-3.175 -0.95246,3.197135 -1.90479,6.393995 -2.85719,9.591146 3.55269,1.058321 7.10552,2.116663 10.65826,3.175 -1.06894,3.588506 -2.13804,7.177254 -3.20704,10.765754 3.2214,0.959627 6.44263,1.919269 9.66401,2.878894 0.0473,-0.156221 0.0934,-0.312822 0.14004,-0.469222 v -5.16e-4 c 1.02277,-3.433222 2.0453,-6.866404 3.06803,-10.299633 3.55191,1.059054 7.10387,2.118996 10.65568,3.1781 0.95247,-3.197136 1.9048,-6.393995 2.85719,-9.591145 -3.5521,-1.058147 -7.10456,-2.116324 -10.65671,-3.174484 1.06894,-3.588497 2.13804,-7.177253 3.20704,-10.765751 -3.22138,-0.959622 -6.4426,-1.919262 -9.66401,-2.878894 z m 1.84795,3.415812 c 1.46608,0.43674 2.93205,0.87325 4.39818,1.309998 -1.06896,3.588503 -2.13753,7.177257 -3.20652,10.765751 3.55269,1.058322 7.10506,2.116676 10.65774,3.175 -0.42953,1.441853 -0.85878,2.883463 -1.28829,4.325318 -3.55272,-1.058322 -7.10555,-2.116668 -10.65826,-3.175 -1.0691,3.589092 -2.1384,7.178229 -3.20756,10.767301 -1.46613,-0.436745 -2.93206,-0.873256 -4.39818,-1.309998 1.06912,-3.589087 2.13841,-7.178224 3.20756,-10.767301 -3.55211,-1.058152 -7.10459,-2.116331 -10.65672,-3.174483 0.42959,-1.441845 0.85938,-2.883433 1.28881,-4.325318 3.55212,1.058153 7.10407,2.11581 10.6562,3.173967 1.06897,-3.588508 2.13803,-7.17674 3.20704,-10.765235 z M -8.232056,18.96215 c 3.3998435,0.299839 6.7995098,0.599327 10.1993778,0.89917 L -0.23409424,44.826721 C 8.0045394,45.553303 16.24308,46.279853 24.48171,47.006436 24.186827,50.350064 23.891893,53.693705 23.597009,57.037348 L -1.1187948,54.857636 -3.3212443,79.826138 c -3.3998685,-0.299842 -6.7995337,-0.599329 -10.1993777,-0.89917 0.734023,-8.322982 1.467911,-16.646048 2.201933,-24.969018 -8.237296,-0.726464 -16.474368,-1.453248 -24.71167,-2.179712 0.294883,-3.343644 0.589818,-6.687287 0.884701,-10.030915 8.2373,0.726466 16.474374,1.453245 24.71167,2.179712 z m 62.027225,33.862536 c -2.687807,0.760839 -5.375769,1.521754 -8.063593,2.282548 0.847401,2.994166 1.6949,5.98829 2.542483,8.982397 -2.964238,0.839156 -5.928203,1.67813 -8.892483,2.517159 0.75515,2.667572 1.509721,5.335588 2.264978,8.003129 2.964256,-0.839152 5.928737,-1.678655 8.893,-2.517676 0.847404,2.994156 1.6949,5.988285 2.54248,8.982398 2.687816,-0.760839 5.375791,-1.52166 8.063591,-2.282548 -0.037,-0.130473 -0.07371,-0.260659 -0.110588,-0.391191 l -5.17e-4,-0.001 c -0.810915,-2.86456 -1.621538,-5.729222 -2.432409,-8.593791 2.963982,-0.838205 5.928445,-1.675012 8.89248,-2.513025 -0.755148,-2.667577 -1.510228,-5.335067 -2.265495,-8.002612 -2.963746,0.839007 -5.927663,1.677758 -8.891447,2.516642 -0.847405,-2.994151 -1.694895,-5.988282 -2.54248,-8.982397 z m -1.576131,2.817399 c 0.847395,2.994162 1.694893,5.988284 2.54248,8.982397 2.964232,-0.839153 5.928718,-1.678137 8.892998,-2.517159 0.340567,1.203019 0.681092,2.406051 1.021643,3.609082 -2.964239,0.839158 -5.92872,1.678144 -8.892998,2.517159 0.847536,2.994646 1.695279,5.98936 2.542998,8.983948 -1.223227,0.34645 -2.446304,0.692336 -3.669544,1.038696 -0.847532,-2.994643 -1.6958,-5.98936 -2.543514,-8.983948 -2.963761,0.839003 -5.927141,1.678268 -8.890933,2.51716 -0.340581,-1.203036 -0.68119,-2.406018 -1.021643,-3.609083 2.96375,-0.839005 5.927135,-1.678267 8.890933,-2.517159 -0.847407,-2.994174 -1.694904,-5.988293 -2.54248,-8.982397 1.223201,-0.346448 2.446814,-0.692339 3.67006,-1.038696 z m 202.154062,0.04754 c -1.60738,4.096874 -3.21506,8.193861 -4.82244,12.290723 -4.056,-1.591328 -8.11169,-3.183047 -12.16773,-4.774386 -1.43205,3.6501 -2.86432,7.30066 -4.29638,10.950753 4.05602,1.591338 8.11221,3.182532 12.16825,4.773869 -1.60743,4.096867 -3.21508,8.193838 -4.82245,12.290725 3.67778,1.44292 7.35564,2.88548 11.03344,4.328407 0.0696,-0.17873 0.13985,-0.35694 0.21032,-0.53537 1.53783,-3.919607 3.07533,-7.839344 4.61316,-11.758962 4.05496,1.591998 8.10961,3.184968 12.16463,4.776968 1.43207,-3.65009 2.86431,-7.300141 4.29638,-10.950234 -4.05535,-1.591064 -8.11082,-3.182286 -12.16619,-4.773352 1.60741,-4.096861 3.21457,-8.193324 4.82193,-12.290206 -3.67781,-1.442932 -7.35514,-2.886007 -11.03292,-4.328935 z m 1.82573,4.184241 c 1.67379,0.656701 3.3476,1.313215 5.0214,1.969905 -1.60737,4.096883 -3.21456,8.193842 -4.82193,12.290723 l 12.16774,4.773869 c -0.64589,1.646114 -1.29153,3.292566 -1.93735,4.938716 -4.05604,-1.591338 -8.11224,-3.183056 -12.16825,-4.774385 -1.60762,4.097528 -3.21483,8.195248 -4.82245,12.292785 -1.6738,-0.6567 -3.34813,-1.31321 -5.02191,-1.969897 1.60763,-4.09754 3.21536,-8.195263 4.82296,-12.292794 -4.05534,-1.591066 -8.11078,-3.182262 -12.16618,-4.773352 0.64588,-1.646124 1.29204,-3.292061 1.93786,-4.9382 4.05538,1.591076 8.1108,3.181762 12.16618,4.772836 1.60739,-4.096877 3.21454,-8.193323 4.82193,-12.290206 z m 13.98726,121.840614 c -1.02546,5.76852 -2.05085,11.53688 -3.0763,17.3054 -5.71094,-1.01521 -11.42178,-2.03059 -17.1328,-3.04581 -0.91361,5.13945 -1.8273,10.27875 -2.74092,15.41818 5.71101,1.01524 11.42186,2.0306 17.1328,3.04581 -1.02547,5.76855 -2.05085,11.53688 -3.0763,17.3054 5.17844,0.92054 10.35704,1.84103 15.53549,2.76159 0.045,-0.25083 0.0892,-0.50144 0.13384,-0.75241 0.98107,-5.51888 1.96192,-11.03767 2.94298,-16.55661 5.70984,1.01603 11.41982,2.03286 17.1297,3.04891 0.91363,-5.13944 1.82678,-10.27875 2.7404,-15.41818 -5.71003,-1.01508 -11.4197,-2.03021 -17.1297,-3.04529 1.02545,-5.76854 2.05084,-11.5369 3.07629,-17.30541 -5.17846,-0.92054 -10.35705,-1.84103 -15.53548,-2.76158 z m 3.47886,4.98471 c 2.35675,0.41891 4.71363,0.8378 7.07037,1.25677 -1.02545,5.76845 -2.05084,11.53735 -3.0763,17.30592 5.71095,1.01521 11.42186,2.03007 17.1328,3.04529 -0.41204,2.31773 -0.82406,4.63574 -1.2361,6.95358 -5.71094,-1.01524 -11.42186,-2.03059 -17.1328,-3.04581 -1.02561,5.76942 -2.0512,11.53906 -3.07682,17.3085 -2.35675,-0.41893 -4.71363,-0.83833 -7.07037,-1.25728 1.02562,-5.76945 2.05122,-11.53857 3.07682,-17.30799 -5.71001,-1.01504 -11.42017,-2.03023 -17.13022,-3.04529 0.41207,-2.31783 0.82409,-4.63531 1.2361,-6.95307 5.71005,1.01507 11.42021,2.02973 17.13022,3.04478 1.02546,-5.76856 2.05086,-11.53693 3.0763,-17.3054 z M 10.544576,199.85136 v 0.43098 l 5.17e-4,5.2e-4 c -0.002,9.95586 -0.0045,19.91207 -0.0067,29.86794 -9.93890298,-0.003 -19.8778826,-0.007 -29.816785,-0.0103 v 36.0009 c 9.9410231,0 19.88196302,1e-5 29.822986,0 v 30.29066 H 46.856076 V 266.1414 c 9.941553,1e-5 19.882981,1e-5 29.824536,0 V 230.1405 H 46.856058 v -30.28911 z m 6.222359,6.22288 h 23.866761 v 30.2891 h 29.824539 v 23.55619 H 40.633696 V 290.2102 H 16.766935 v -30.29066 h -29.822986 v -23.55619 h 29.822986 z m 3.609082,3.69176 v 0.43098 29.72584 H -9.4722901 v 16.43879 H 20.381185 v 30.15836 H 37.019964 V 256.36162 H 66.874991 V 239.92283 H 37.019964 v -30.15682 z m 5.570203,5.56504 h 5.509742 v 30.15733 h 29.853477 v 5.30768 c -9.951097,0 -19.902381,-1e-5 -29.853477,0 v 30.15889 H 25.94622 v -30.15889 c -9.951096,-1e-5 -19.9023788,0 -29.853475,0 v -5.30768 H 25.94622 Z m 206.24994,-5.62499 -9.77253,10.53527 c -3.47692,-3.22501 -6.95357,-6.44993 -10.43037,-9.67486 -2.90218,3.12888 -5.80478,6.25821 -8.70696,9.38703 3.47681,3.22489 6.95396,6.44979 10.43088,9.67486 -3.25746,3.51191 -6.51511,7.02393 -9.77253,10.53579 3.15253,2.92423 6.3053,5.8484 9.45782,8.77259 0.14273,-0.1526 0.28425,-0.30653 0.42634,-0.4594 l -0.001,5.1e-4 c 3.1166,-3.36006 6.23323,-6.71998 9.34982,-10.08 3.47577,3.22534 6.95058,6.45115 10.42624,9.67641 2.90212,-3.12893 5.80479,-6.25768 8.70696,-9.38651 -3.47636,-3.22446 -6.95292,-6.44923 -10.42934,-9.67383 3.25748,-3.5119 6.51507,-7.02392 9.77253,-10.53579 l -9.45782,-8.77207 z m 0.18603,4.96559 c 1.43482,1.33082 2.86982,2.66172 4.30465,3.99252 -3.25745,3.51192 -6.51507,7.02337 -9.77253,10.53527 3.47695,3.22502 6.95405,6.4499 10.43089,9.67486 -1.30882,1.41108 -2.61794,2.82224 -3.92689,4.23334 -3.47683,-3.22495 -6.95342,-6.44981 -10.43037,-9.67486 -3.25796,3.51243 -6.51606,7.02484 -9.77408,10.53734 -1.43481,-1.33084 -2.86933,-2.66174 -4.30413,-3.99252 3.25797,-3.51246 6.51561,-7.02489 9.77356,-10.53734 -3.4764,-3.22456 -6.95252,-6.44893 -10.42882,-9.67332 1.30891,-1.41118 2.61753,-2.82228 3.92637,-4.23333 3.47627,3.22442 6.95293,6.44876 10.42934,9.67331 3.25747,-3.51192 6.51457,-7.02337 9.77201,-10.53527 z m -68.98493,27.10532 -1.4919,16.92041 c -5.58386,-0.49245 -11.16805,-0.98497 -16.75195,-1.47742 -0.44316,5.02505 -0.88646,10.04997 -1.32963,15.07504 5.58387,0.49246 11.1681,0.98499 16.75195,1.47743 -0.4974,5.64016 -0.995,11.28028 -1.49242,16.92042 5.06312,0.44654 10.12614,0.89293 15.18925,1.33945 0.0212,-0.24539 0.0434,-0.49058 0.0651,-0.73587 0.4759,-5.39609 0.95193,-10.7921 1.42782,-16.18816 5.5829,0.49338 11.16545,0.98767 16.74833,1.48105 0.44317,-5.02508 0.88646,-10.05 1.32963,-15.07505 -5.58295,-0.49238 -11.16585,-0.98506 -16.74885,-1.47743 0.49742,-5.64017 0.995,-11.28028 1.49242,-16.92042 z m 3.77238,4.5005 c 2.30435,0.20327 4.60842,0.40657 6.91275,0.60978 -0.49742,5.64009 -0.99448,11.28027 -1.49189,16.92042 5.5839,0.49245 11.1676,0.98499 16.75143,1.47743 -0.19984,2.26624 -0.39957,4.53229 -0.59945,6.79855 -5.5838,-0.49244 -11.16805,-0.98498 -16.75195,-1.47743 -0.4975,5.64101 -0.99493,11.28204 -1.49241,16.923 -2.30433,-0.20325 -4.60841,-0.40657 -6.91276,-0.60979 0.49748,-5.64095 0.99492,-11.28196 1.49242,-16.92299 -5.58297,-0.49236 -11.16587,-0.98455 -16.74885,-1.47692 0.19983,-2.26626 0.39959,-4.53229 0.59944,-6.79855 5.583,0.49238 11.1659,0.98453 16.74885,1.47691 0.49741,-5.64015 0.99502,-11.28032 1.49242,-16.92041 z m 74.70293,13.49582 -2.24121,12.54652 c -4.14037,-0.73956 -8.28113,-1.47935 -12.42146,-2.21899 -0.66552,3.72603 -1.33097,7.45195 -1.99574,11.17813 4.14033,0.73956 8.2806,1.47933 12.42094,2.21899 -0.74699,4.18208 -1.49461,8.3639 -2.24172,12.546 3.75426,0.67062 7.50848,1.34144 11.26288,2.01125 0.0324,-0.18233 0.0648,-0.36447 0.0977,-0.54674 0.71463,-4.0011 1.42978,-8.00232 2.14457,-12.0034 4.13958,0.74056 8.27882,1.48208 12.41836,2.2226 0.66559,-3.72602 1.33149,-7.45194 1.99626,-11.17813 -4.13973,-0.73946 -8.27969,-1.47893 -12.41939,-2.21846 0.74699,-4.1821 1.49461,-8.3644 2.24172,-12.54653 l -11.26288,-2.01124 z m 2.51974,3.61528 c 1.70861,0.3051 3.41719,0.61016 5.12579,0.91519 -0.74698,4.18212 -1.49411,8.3645 -2.24121,12.54652 4.14035,0.73956 8.28058,1.47934 12.42095,2.21899 -0.30013,1.68036 -0.60015,3.3606 -0.9002,5.04103 -4.14037,-0.73958 -8.28062,-1.47933 -12.42095,-2.21898 -0.7471,4.18274 -1.4945,8.36534 -2.24172,12.54807 -1.70861,-0.30512 -3.4177,-0.61017 -5.12631,-0.91519 0.74708,-4.18276 1.49452,-8.36586 2.24173,-12.54859 -4.13967,-0.73945 -8.27917,-1.47893 -12.41888,-2.21847 0.30016,-1.68042 0.60013,-3.36065 0.9002,-5.04103 4.13971,0.73947 8.27975,1.47893 12.4194,2.21847 0.74698,-4.18205 1.4941,-8.36394 2.2412,-12.54601 z"
         sodipodi:nodetypes="ccccccccccccccccccccccccccccccccccccccccccccccccccccccccccccccccccccccccccccccccccccccccccccccccccccccccccccccccccccccccccccccsccccccccccccccccccccccccccccccccccccccccccccccccccccccccccccccccccccccccccccccccccccccccccccccccccccccccccccccccccccccccccccccccccccccccccccccccccccccccccccccccccccccccccccccccccccccccccccccccccccccccccccccc" /></mask><radialGradient
       inkscape:collect="always"
       xlink:href="#linearGradient7739-1"
       id="radialGradient1748"
       gradientUnits="userSpaceOnUse"
       gradientTransform="matrix(1,0,0,0.88925641,0,15.494577)"
       cx="135.46666"
       cy="134.91281"
       fx="135.46666"
       fy="134.91281"
       r="165.93407" /><mask
       maskUnits="userSpaceOnUse"
       id="mask1751"><path
         id="path1753"
         style="color:#000000;fill:url(#radialGradient1755);fill-opacity:1;stroke-width:5.31762;stroke-dasharray:none;paint-order:stroke fill markers"
         d="m 64.283415,-7.6439779 c -0.76518,4.9313748 -1.530289,9.8630835 -2.295466,14.7944457 L 47.341295,4.8777385 c -0.68173,4.3935758 -1.36362,8.7870135 -2.045353,13.1805905 4.882205,0.757552 9.764463,1.515182 14.646653,2.27273 -0.76518,4.931375 -1.530289,9.862553 -2.295467,14.793929 4.426882,0.686901 8.853953,1.373955 13.280843,2.060855 0.03334,-0.214611 0.06646,-0.429262 0.09973,-0.643887 0.732073,-4.718002 1.464178,-9.436174 2.196248,-14.154175 4.88124,0.758412 9.762305,1.517933 14.643555,2.276347 0.681731,-4.393576 1.363618,-8.787531 2.045351,-13.181108 -4.881401,-0.757426 -9.76267,-1.5147879 -14.644068,-2.2722127 0.76518,-4.9313624 1.530289,-9.86255466 2.295469,-14.7939289 z m 77.693965,2.107365 c -0.97498,2.9849578 -1.95028,5.969584 -2.9254,8.9544922 -2.95512,-0.9653781 -5.90994,-1.9305679 -8.86509,-2.89594732 -0.86908,2.65928442 -1.73765,5.31846702 -2.60656,7.97780762 2.95511,0.9654275 5.91043,1.9310814 8.86561,2.8964644 -0.97497,2.984952 -1.95032,5.969566 -2.92541,8.954492 2.67956,0.875367 5.35923,1.750871 8.03879,2.626196 0.0425,-0.130125 0.0837,-0.26045 0.12764,-0.390157 v -0.001 c 0.93305,-2.855727 1.86605,-5.711614 2.79879,-8.567435 2.95442,0.965932 5.90864,1.933377 8.86303,2.899564 0.86908,-2.659285 1.73716,-5.318978 2.60604,-7.978323 -2.95467,-0.9652336 -5.90936,-1.9302034 -8.86406,-2.8954304 0.97498,-2.9849474 1.95032,-5.97009157 2.92541,-8.9550089 -2.67953,-0.8753483 -5.3592,-1.7503164 -8.03879,-2.6256795 z m -74.638337,2.0717081 c 2.014739,0.312618 4.029324,0.6253068 6.044076,0.9379273 -0.76518,4.9313748 -1.530289,9.8630714 -2.295467,14.7944455 l 14.646651,2.272213 c -0.307449,1.981431 -0.614971,3.96291 -0.922425,5.94434 -4.88219,-0.757549 -9.764461,-1.51518 -14.646651,-2.272729 -0.765302,4.932166 -1.530167,9.864344 -2.295469,14.796511 -2.014752,-0.312613 -4.029848,-0.624795 -6.044592,-0.937408 0.765305,-4.93217 1.530684,-9.864349 2.295986,-14.796514 -4.881396,-0.757423 -9.762673,-1.515306 -14.644069,-2.272729 0.307449,-1.981431 0.614971,-3.962395 0.922425,-5.9438237 4.881399,0.7574254 9.762667,1.5147867 14.644066,2.2722127 0.76518,-4.931376 1.530289,-9.8630708 2.295469,-14.7944458 z m 76.112667,0.8314738 c 1.21957,0.3984048 2.43917,0.7968788 3.65869,1.1952759 -0.97496,2.9849581 -1.95029,5.9700906 -2.9254,8.9550089 2.95513,0.9653741 5.91048,1.9305783 8.86561,2.8959472 -0.39174,1.199363 -0.78388,2.398874 -1.17564,3.59823 -2.95511,-0.965414 -5.90995,-1.93109 -8.86509,-2.896464 -0.97522,2.985412 -1.95066,5.971168 -2.92592,8.956559 -1.21952,-0.398403 -2.43917,-0.796867 -3.6587,-1.195276 0.97523,-2.985402 1.9507,-5.97116 2.92592,-8.9565589 -2.9546,-0.9652609 -5.90939,-1.9302011 -8.86405,-2.8954304 0.39183,-1.1993338 0.78337,-2.398875 1.17512,-3.5982299 2.95468,0.965231 5.90944,1.9307381 8.86406,2.8959471 0.97499,-2.9849545 1.95031,-5.97008929 2.9254,-8.9550089 z m -157.248801,14.949475 -2.201932,24.964885 c -8.238628,-0.726585 -16.477147,-1.453126 -24.715804,-2.179711 -0.653867,7.414101 -1.307769,14.827951 -1.961639,22.242052 8.238659,0.726583 16.477177,1.453129 24.715805,2.179712 -0.733902,8.321622 -1.467514,16.643257 -2.201416,24.964885 7.470319,0.658823 14.9407218,1.317799 22.4110353,1.976622 0.031992,-0.362728 0.063611,-0.725575 0.095601,-1.088305 v 0.0041 L 4.4508912,61.495466 C 12.688102,62.222904 20.925346,62.951849 29.16256,63.679311 29.816428,56.26521 30.469816,48.850844 31.123681,41.436742 22.886377,40.710284 14.649309,39.984016 6.4120117,39.257552 L 8.6139446,14.292668 C 1.143631,13.633844 -6.3267754,12.974867 -13.797091,12.316044 Z m 225.180571,2.747119 c -1.06895,3.588503 -2.13805,7.177264 -3.20704,10.765751 -3.55274,-1.058342 -7.10553,-2.116667 -10.65826,-3.175 -0.95246,3.197135 -1.90479,6.393994 -2.85719,9.591145 3.55269,1.058323 7.10552,2.116664 10.65826,3.175 -1.06894,3.588507 -2.13804,7.177254 -3.20704,10.765753 3.2214,0.959625 6.44263,1.919269 9.66401,2.878892 0.0473,-0.156221 0.0934,-0.31282 0.14004,-0.46922 v -5.29e-4 c 1.02277,-3.433221 2.0453,-6.866401 3.06803,-10.299632 3.55191,1.059056 7.10387,2.118998 10.65568,3.178101 0.95247,-3.197137 1.9048,-6.393995 2.85719,-9.591146 -3.5521,-1.058145 -7.10456,-2.116322 -10.65671,-3.174484 1.06894,-3.588496 2.13804,-7.177252 3.20704,-10.76575 -3.22138,-0.959609 -6.4426,-1.919249 -9.66401,-2.878881 z m 1.84795,3.415812 c 1.46608,0.43674 2.93205,0.87325 4.39818,1.309998 -1.06896,3.588503 -2.13753,7.177257 -3.20652,10.765751 3.55269,1.058322 7.10506,2.116677 10.65774,3.175 -0.42953,1.441852 -0.85878,2.883463 -1.28829,4.325318 -3.55272,-1.058323 -7.10555,-2.116669 -10.65826,-3.175 -1.0691,3.589091 -2.1384,7.178228 -3.20756,10.767301 -1.46613,-0.436745 -2.93206,-0.873255 -4.39818,-1.309997 1.06912,-3.589089 2.13841,-7.178226 3.20756,-10.767301 -3.55211,-1.058153 -7.10459,-2.116331 -10.65672,-3.174484 0.42959,-1.441844 0.85938,-2.883432 1.28881,-4.325318 3.55212,1.058153 7.10407,2.115809 10.6562,3.173968 1.06897,-3.588509 2.13803,-7.176741 3.20704,-10.765236 z M -8.2320556,18.96215 c 3.3998434,0.299839 6.7995094,0.599327 10.1993774,0.89917 L -0.23409424,44.826722 C 8.0045391,45.553302 16.24308,46.27985 24.48171,47.006433 24.186827,50.35006 23.891893,53.693703 23.597009,57.037346 L -1.1187948,54.857634 -3.3212442,79.826136 c -3.3998683,-0.299842 -6.7995338,-0.599329 -10.1993778,-0.899171 0.734023,-8.322982 1.467911,-16.646049 2.201933,-24.969017 -8.237296,-0.726464 -16.474367,-1.453248 -24.711669,-2.179712 0.294881,-3.343645 0.589817,-6.687286 0.884701,-10.030912 8.237299,0.726466 16.474373,1.453245 24.711669,2.179711 z M 53.795165,52.824684 c -2.687806,0.760839 -5.375767,1.521754 -8.063589,2.282547 0.847399,2.994166 1.694897,5.988291 2.542481,8.982398 -2.964235,0.839155 -5.928201,1.678128 -8.892481,2.517159 0.755149,2.667571 1.50972,5.335587 2.264978,8.003127 2.964257,-0.83915 5.928733,-1.678654 8.892998,-2.517674 0.847402,2.994154 1.6949,5.988285 2.542479,8.982397 2.687815,-0.760838 5.375791,-1.521661 8.06359,-2.282547 -0.037,-0.130474 -0.0737,-0.260659 -0.110588,-0.391192 l -5.29e-4,-0.0011 c -0.810916,-2.864559 -1.621539,-5.729221 -2.43241,-8.593791 2.963982,-0.838203 5.928445,-1.675011 8.892482,-2.513023 -0.75515,-2.667577 -1.510228,-5.335069 -2.265497,-8.002614 -2.963747,0.839007 -5.927662,1.67776 -8.891445,2.516643 -0.847405,-2.99415 -1.694897,-5.988281 -2.542482,-8.982396 z m -1.576131,2.817397 c 0.847395,2.994163 1.694895,5.988286 2.542482,8.982398 2.964231,-0.839152 5.928717,-1.678138 8.892998,-2.517158 0.340566,1.203018 0.68109,2.406049 1.021641,3.60908 -2.964238,0.839158 -5.92872,1.678144 -8.892998,2.517159 0.847537,2.994647 1.695281,5.989362 2.542998,8.983948 -1.223227,0.346451 -2.446303,0.692338 -3.669543,1.038696 -0.847532,-2.994641 -1.6958,-5.98936 -2.543514,-8.983948 -2.963762,0.839004 -5.92714,1.678268 -8.890929,2.517161 -0.340582,-1.203037 -0.681191,-2.406018 -1.021643,-3.609083 2.963748,-0.839005 5.927132,-1.678268 8.890928,-2.517159 -0.847407,-2.994173 -1.694902,-5.988293 -2.542479,-8.982398 1.223201,-0.346448 2.446814,-0.692338 3.670059,-1.038696 z m 202.154066,0.04754 c -1.60738,4.096874 -3.21506,8.19386 -4.82244,12.290721 -4.056,-1.591326 -8.11169,-3.183046 -12.16773,-4.774385 -1.43205,3.650102 -2.86432,7.300661 -4.29638,10.950752 4.05602,1.591337 8.11221,3.182533 12.16825,4.773867 -1.60743,4.096872 -3.21508,8.193847 -4.82245,12.290724 3.67778,1.442929 7.35564,2.885482 11.03344,4.328419 0.0696,-0.178731 0.13985,-0.356941 0.21032,-0.535371 1.53783,-3.919614 3.07533,-7.839353 4.61316,-11.75897 4.05496,1.591993 8.10961,3.184967 12.16463,4.77697 1.43208,-3.650096 2.86432,-7.300142 4.29638,-10.950233 -4.05535,-1.591064 -8.11083,-3.182287 -12.16619,-4.773356 1.60741,-4.096859 3.21457,-8.193323 4.82194,-12.290203 -3.67782,-1.442932 -7.35515,-2.886009 -11.03293,-4.328935 z m 1.82573,4.18424 c 1.67379,0.656701 3.3476,1.313217 5.0214,1.969905 -1.60737,4.096885 -3.21456,8.193841 -4.82193,12.290724 l 12.16773,4.773869 c -0.64588,1.646113 -1.29151,3.292565 -1.93734,4.938715 -4.05604,-1.591339 -8.11224,-3.183057 -12.16825,-4.774385 -1.60762,4.097528 -3.21483,8.195246 -4.82245,12.29279 -1.6738,-0.656698 -3.34813,-1.313217 -5.02191,-1.969905 1.60763,-4.097541 3.21536,-8.195262 4.82296,-12.29279 -4.05534,-1.591067 -8.11078,-3.182263 -12.16618,-4.773353 0.64588,-1.646124 1.29204,-3.29206 1.93786,-4.938202 4.05538,1.59108 8.1108,3.181765 12.16618,4.77284 1.60739,-4.096877 3.21454,-8.193323 4.82193,-12.290208 z M 270.1861,181.71449 c -1.02548,5.76852 -2.05087,11.53688 -3.07631,17.3054 -5.71094,-1.01521 -11.42178,-2.03059 -17.1328,-3.04581 -0.91361,5.13945 -1.8273,10.27875 -2.74092,15.41818 5.71101,1.01524 11.42186,2.0306 17.1328,3.04581 -1.02547,5.76855 -2.05085,11.53688 -3.0763,17.3054 5.17843,0.92054 10.35704,1.84103 15.53549,2.76159 0.045,-0.25083 0.0892,-0.50144 0.13383,-0.75241 0.98108,-5.51888 1.96194,-11.03767 2.94299,-16.55661 5.70984,1.01603 11.41981,2.03286 17.1297,3.04891 0.91364,-5.13944 1.82679,-10.27875 2.7404,-15.41818 -5.71003,-1.01508 -11.41971,-2.03021 -17.12971,-3.04529 1.02548,-5.76854 2.05084,-11.5369 3.07631,-17.30541 -5.17847,-0.92054 -10.35706,-1.84103 -15.53548,-2.76158 z m 3.47884,4.98471 c 2.35675,0.41891 4.71364,0.8378 7.07039,1.25677 -1.02545,5.76845 -2.05084,11.53735 -3.07631,17.30592 5.71095,1.01521 11.42187,2.03007 17.1328,3.04529 -0.41204,2.31773 -0.82405,4.63574 -1.23611,6.95358 -5.71092,-1.01524 -11.42185,-2.03059 -17.13278,-3.04581 -1.02563,5.76942 -2.0512,11.53906 -3.07683,17.3085 -2.35675,-0.41893 -4.71364,-0.83833 -7.07036,-1.25728 1.0256,-5.76945 2.05121,-11.53857 3.07681,-17.30799 -5.71001,-1.01504 -11.42017,-2.03023 -17.13022,-3.04529 0.41207,-2.31783 0.82409,-4.63531 1.2361,-6.95307 5.71005,1.01507 11.4202,2.02973 17.13023,3.04478 1.02545,-5.76856 2.05084,-11.53693 3.07628,-17.3054 z M 10.544576,199.85137 v 0.43098 l 5.29e-4,5.3e-4 c -0.002,9.95586 -0.0045,19.91207 -0.0067,29.86794 -9.93890388,-0.003 -19.8778831,-0.007 -29.816785,-0.0103 v 36.00088 c 9.9410226,0 19.88196211,3e-5 29.822986,0 v 30.29067 H 46.856073 V 266.14141 H 76.680608 V 230.1405 H 46.856055 v -30.28913 z m 6.222358,6.22288 h 23.866761 v 30.2891 h 29.824537 v 23.55619 H 40.633695 v 30.29065 H 16.766934 v -30.29065 h -29.822985 v -23.55619 h 29.822985 z m 3.609084,3.69176 v 0.43098 29.72584 H -9.47229 v 16.43879 h 29.853475 v 30.15834 H 37.019963 V 256.36162 H 66.874988 V 239.92283 H 37.019963 v -30.15682 z m 5.570201,5.56504 h 5.509742 v 30.15733 h 29.853474 v 5.30768 c -9.951095,0 -19.902379,-1e-5 -29.853474,0 v 30.1589 h -5.509742 v -30.1589 c -9.951096,-1e-5 -19.9023779,0 -29.853474,0 v -5.30768 h 29.853474 z m 206.249941,-5.62499 -9.77253,10.53527 c -3.47692,-3.22501 -6.95357,-6.44993 -10.43037,-9.67486 -2.90218,3.12888 -5.80478,6.25821 -8.70696,9.38703 3.47681,3.22489 6.95396,6.44979 10.43088,9.67486 -3.25746,3.51191 -6.51511,7.02393 -9.77253,10.53579 3.15253,2.92423 6.3053,5.8484 9.45782,8.77259 0.14273,-0.1526 0.28425,-0.30653 0.42634,-0.4594 l -0.001,5.3e-4 c 3.1166,-3.36006 6.23323,-6.71998 9.34982,-10.08 3.47577,3.22534 6.95058,6.45115 10.42624,9.67641 2.90212,-3.12893 5.80479,-6.25768 8.70696,-9.38651 -3.47636,-3.22446 -6.95292,-6.44923 -10.42934,-9.67383 3.25748,-3.5119 6.51507,-7.02392 9.77253,-10.53579 l -9.45782,-8.77207 z m 0.18603,4.96559 c 1.43482,1.33082 2.86982,2.66172 4.30465,3.99252 -3.25745,3.51192 -6.51507,7.02337 -9.77253,10.53527 3.47695,3.22502 6.95405,6.4499 10.43089,9.67486 -1.30882,1.41108 -2.61794,2.82224 -3.92689,4.23334 -3.47683,-3.22495 -6.95342,-6.44981 -10.43037,-9.67486 -3.25796,3.51243 -6.51606,7.02484 -9.77408,10.53734 -1.43481,-1.33084 -2.86933,-2.66174 -4.30413,-3.99252 3.25797,-3.51246 6.51561,-7.02489 9.77356,-10.53734 -3.4764,-3.22456 -6.95252,-6.44893 -10.42882,-9.67332 1.30891,-1.41118 2.61753,-2.82228 3.92637,-4.23333 3.47627,3.22442 6.95293,6.44876 10.42934,9.67331 3.25747,-3.51192 6.51457,-7.02337 9.77201,-10.53527 z m -68.98493,27.10532 -1.4919,16.92041 c -5.58386,-0.49245 -11.16805,-0.98497 -16.75195,-1.47742 -0.44316,5.02505 -0.88646,10.04998 -1.32963,15.07505 5.58387,0.49244 11.1681,0.98499 16.75195,1.47741 -0.4974,5.64017 -0.995,11.2803 -1.49242,16.92045 5.06312,0.44653 10.12614,0.89291 15.18925,1.33942 0.0212,-0.24537 0.0434,-0.49056 0.0651,-0.73586 0.4759,-5.39609 0.95193,-10.79209 1.42782,-16.18816 5.5829,0.49337 11.16545,0.98767 16.74833,1.48106 0.44317,-5.0251 0.88646,-10.05001 1.32963,-15.07506 -5.58295,-0.49238 -11.16585,-0.98506 -16.74885,-1.47743 0.49742,-5.64017 0.995,-11.28028 1.49242,-16.92042 z m 3.77238,4.5005 c 2.30435,0.20327 4.60842,0.40657 6.91275,0.60978 -0.49742,5.64009 -0.99448,11.28027 -1.49189,16.92042 5.5839,0.49245 11.1676,0.985 16.75143,1.47742 -0.19984,2.26626 -0.39957,4.53231 -0.59945,6.79857 -5.5838,-0.49244 -11.16805,-0.98499 -16.75195,-1.47743 -0.4975,5.64099 -0.99493,11.28204 -1.49241,16.92299 -2.30433,-0.20326 -4.60841,-0.40656 -6.91276,-0.60979 0.49748,-5.64094 0.99492,-11.28196 1.49242,-16.92299 -5.58297,-0.49236 -11.16587,-0.98454 -16.74885,-1.47693 0.19983,-2.26626 0.39959,-4.53228 0.59944,-6.79854 5.583,0.49238 11.1659,0.98453 16.74885,1.47691 0.49741,-5.64015 0.99502,-11.28032 1.49242,-16.92041 z m 74.70293,13.49582 c -4.24832,0 -1.49409,8.36446 -2.24121,12.54651 -4.14037,-0.73956 -8.28113,-1.47934 -12.42146,-2.21898 -0.66552,3.72602 -1.33097,7.45196 -1.99574,11.17814 4.14033,0.73954 8.2806,1.47932 12.42094,2.21899 -0.74699,4.18208 -1.49461,8.3639 -2.24172,12.54598 3.75426,0.67064 7.50848,1.34147 11.26288,2.01126 0.0324,-0.18233 0.0648,-0.36446 0.0977,-0.54674 0.71463,-4.0011 1.42978,-8.00232 2.14457,-12.0034 4.13958,0.74057 8.27882,1.48209 12.41836,2.2226 0.66559,-3.72602 1.33149,-7.45193 1.99626,-11.17814 -4.13973,-0.73946 -8.27969,-1.47891 -12.41939,-2.21845 0.74699,-4.18211 1.49461,-8.36441 2.24172,-12.54653 l -11.26288,-2.01124 z m 2.51974,3.61528 c 1.70861,0.3051 3.41719,0.61016 5.12579,0.91519 -0.74698,4.18212 -1.49411,8.3645 -2.24121,12.54653 4.14035,0.73956 8.28058,1.47934 12.42095,2.21898 -0.30013,1.68037 -0.60015,3.36061 -0.9002,5.04103 -4.14037,-0.73957 -8.28062,-1.47931 -12.42095,-2.21898 -0.7471,4.18274 -1.4945,8.36535 -2.24172,12.54807 -1.70861,-0.30511 -3.4177,-0.61018 -5.12631,-0.91519 0.74708,-4.18275 1.49452,-8.36586 2.24173,-12.54858 -4.13967,-0.73946 -8.27917,-1.47894 -12.41888,-2.21848 0.30016,-1.68042 0.60013,-3.36066 0.9002,-5.04103 4.13971,0.73946 8.27975,1.47895 12.4194,2.21848 0.74698,-4.18205 1.4941,-8.36395 2.2412,-12.54602 z"
         sodipodi:nodetypes="ccccccccccccccccccccccccccccccccccccccccccccccccccccccccccccccccccccccccccccccccccccccccccccccccccccccccccccccccccccccccccccccccccccccccccccccccccccccccccccccccccccccccccccccccccccccccccccccccccccccccccccccccccccccccccccccccccccccccccccccccccccccccccccccccccccccccccccccccccccccccccccccccccccccccccccccccccscccccccccccccsccccccccccccc" /></mask><radialGradient
       inkscape:collect="always"
       xlink:href="#linearGradient7739"
       id="radialGradient1755"
       gradientUnits="userSpaceOnUse"
       gradientTransform="matrix(1,0,0,0.88925638,0,15.494577)"
       cx="135.46666"
       cy="134.91281"
       fx="135.46666"
       fy="134.91281"
       r="165.93407" /><filter
       style="color-interpolation-filters:sRGB;"
       inkscape:label="Drop Shadow"
       id="filter16"
       x="-0.011331085"
       y="-0.13115362"
       width="1.0226622"
       height="1.2623072"><feFlood
         result="flood"
         in="SourceGraphic"
         flood-opacity="1.000000"
         flood-color="rgb(0,0,0)"
         id="feFlood15" /><feGaussianBlur
         result="blur"
         in="SourceGraphic"
         stdDeviation="2.398413"
         id="feGaussianBlur15" /><feOffset
         result="offset"
         in="blur"
         dx="0.000000"
         dy="0.000000"
         id="feOffset15" /><feComposite
         result="comp1"
         operator="in"
         in="flood"
         in2="offset"
         id="feComposite15" /><feComposite
         result="comp2"
         operator="over"
         in="SourceGraphic"
         in2="comp1"
         id="feComposite16" /></filter><linearGradient
       inkscape:collect="always"
       xlink:href="#swatch9"
       id="linearGradient16"
       x1="-90.111572"
       y1="102.09105"
       x2="-55.262798"
       y2="102.09105"
       gradientUnits="userSpaceOnUse" /><linearGradient
       inkscape:collect="always"
       xlink:href="#swatch9"
       id="linearGradient17"
       x1="128.81497"
       y1="23.057304"
       x2="199.18184"
       y2="23.057304"
       gradientUnits="userSpaceOnUse" /><linearGradient
       inkscape:collect="always"
       xlink:href="#swatch9"
       id="linearGradient18"
       x1="128.76776"
       y1="22.703184"
       x2="190.16254"
       y2="22.703184"
       gradientUnits="userSpaceOnUse" /><linearGradient
       inkscape:collect="always"
       xlink:href="#swatch9"
       id="linearGradient19"
       x1="129.46419"
       y1="22.691381"
       x2="200.74026"
       y2="22.691381"
       gradientUnits="userSpaceOnUse" /><linearGradient
       inkscape:collect="always"
       xlink:href="#swatch9"
       id="linearGradient20"
       x1="128.9212"
       y1="24.202293"
       x2="227.70056"
       y2="24.202293"
       gradientUnits="userSpaceOnUse" /><linearGradient
       inkscape:collect="always"
       xlink:href="#swatch9"
       id="linearGradient21"
       x1="129.46419"
       y1="24.261312"
       x2="197.48122"
       y2="24.261312"
       gradientUnits="userSpaceOnUse" /><linearGradient
       inkscape:collect="always"
       xlink:href="#swatch9"
       id="linearGradient22"
       x1="129.00385"
       y1="18.300293"
       x2="277.51553"
       y2="18.300293"
       gradientUnits="userSpaceOnUse" /><linearGradient
       inkscape:collect="always"
       xlink:href="#swatch9"
       id="linearGradient23"
       x1="129.46419"
       y1="22.709087"
       x2="272.48764"
       y2="22.709087"
       gradientUnits="userSpaceOnUse" /><linearGradient
       inkscape:collect="always"
       xlink:href="#swatch9"
       id="linearGradient35"
       gradientUnits="userSpaceOnUse"
       x1="25.998458"
       y1="69.095291"
       x2="128.07491"
       y2="69.095291" /><linearGradient
       inkscape:collect="always"
       xlink:href="#swatch9"
       id="linearGradient36"
       gradientUnits="userSpaceOnUse"
       x1="26.421792"
       y1="90.360725"
       x2="138.85922"
       y2="90.360725" /><linearGradient
       inkscape:collect="always"
       xlink:href="#swatch9"
       id="linearGradient38"
       gradientUnits="userSpaceOnUse"
       x1="26.533827"
       y1="105.86177"
       x2="97.738543"
       y2="105.86177"
       gradientTransform="translate(0,-18.114831)" /><linearGradient
       inkscape:collect="always"
       xlink:href="#swatch9"
       id="linearGradient40"
       gradientUnits="userSpaceOnUse"
       x1="31.084659"
       y1="114.39898"
       x2="92.432732"
       y2="114.39898"
       gradientTransform="translate(0,-18.114831)" /><linearGradient
       inkscape:collect="always"
       xlink:href="#swatch9"
       id="linearGradient42"
       gradientUnits="userSpaceOnUse"
       x1="31.888993"
       y1="123.25718"
       x2="92.270465"
       y2="123.25718"
       gradientTransform="translate(0,-18.114831)" /><linearGradient
       inkscape:collect="always"
       xlink:href="#swatch9"
       id="linearGradient44"
       gradientUnits="userSpaceOnUse"
       x1="31.458603"
       y1="131.97074"
       x2="118.47482"
       y2="131.97074"
       gradientTransform="translate(0,-18.114831)" /></defs><g
     inkscape:label="Шар 1"
     inkscape:groupmode="layer"
     id="layer1"><rect
       style="fill:#0f0f0f;fill-opacity:1;stroke:none;stroke-width:2.63391;stroke-linecap:square;stroke-linejoin:round;stroke-miterlimit:14.4;paint-order:stroke fill markers"
       id="rect44-3"
       width="508"
       height="285.75"
       x="0"
       y="0"
       inkscape:export-filename="Картинки/гуртожиток макет меню головної сторінки.png"
       inkscape:export-xdpi="192.00002"
       inkscape:export-ydpi="192.00002" /><g
       id="g8"
       transform="translate(339.15827)"><text
         xml:space="preserve"
         style="font-style:normal;font-variant:normal;font-weight:bold;font-stretch:normal;font-size:7.05556px;line-height:1;font-family:Montserrat;-inkscape-font-specification:'Montserrat Bold';text-align:start;letter-spacing:-0.596713px;text-anchor:start;white-space:pre;inline-size:116.957;display:inline;fill:url(#linearGradient35);fill-opacity:1;stroke-width:0.184968;stroke-linejoin:round;stroke-miterlimit:14.4;paint-order:markers stroke fill"
         x="25.764771"
         y="67.631264"
         id="text27"
         transform="translate(0,-18.114831)"><tspan
           x="25.764771"
           y="67.631264"
           id="tspan1">Корисні посилання та правила </tspan><tspan
           x="25.764771"
           y="74.68682"
           id="tspan2">чату&#10;</tspan></text><text
         xml:space="preserve"
         style="font-style:normal;font-variant:normal;font-weight:bold;font-stretch:normal;font-size:7.05556px;line-height:1;font-family:Montserrat;-inkscape-font-specification:'Montserrat Bold';text-align:start;letter-spacing:0px;text-anchor:start;white-space:pre;inline-size:116.957;display:inline;fill:url(#linearGradient36);fill-opacity:1;stroke-width:0.184968;stroke-linejoin:round;stroke-miterlimit:14.4;paint-order:markers stroke fill"
         x="25.764771"
         y="88.79792"
         id="text28"
         transform="translate(0,-18.114831)"><tspan
           x="25.764771"
           y="88.79792"
           id="tspan4"><tspan
             style="font-weight:500;-inkscape-font-specification:'Montserrat Medium'"
             id="tspan3">Рекомендації поведінки в чаті </tspan></tspan><tspan
           x="25.764771"
           y="95.853476"
           id="tspan6"><tspan
             style="font-weight:500;-inkscape-font-specification:'Montserrat Medium'"
             id="tspan5">гуртожитку</tspan></tspan></text><text
         xml:space="preserve"
         style="font-style:normal;font-variant:normal;font-weight:bold;font-stretch:normal;font-size:7.05556px;line-height:1;font-family:Montserrat;-inkscape-font-specification:'Montserrat Bold';text-align:start;letter-spacing:0px;text-anchor:start;fill:url(#linearGradient38);fill-opacity:1;stroke-width:0.184968;stroke-linejoin:round;stroke-miterlimit:14.4;paint-order:markers stroke fill"
         x="25.764771"
         y="89.733078"
         id="text29"><tspan
           sodipodi:role="line"
           id="tspan29"
           style="font-style:normal;font-variant:normal;font-weight:500;font-stretch:normal;font-size:7.05556px;font-family:Montserrat;-inkscape-font-specification:'Montserrat Medium';letter-spacing:0px;fill:url(#linearGradient38);stroke-width:0.184968"
           x="25.764771"
           y="89.733078">Корисні посилання</tspan></text><text
         xml:space="preserve"
         style="font-style:normal;font-variant:normal;font-weight:normal;font-stretch:normal;font-size:7.05556px;line-height:1;font-family:Montserrat;-inkscape-font-specification:Montserrat;text-align:start;letter-spacing:0px;text-anchor:start;fill:url(#linearGradient40);fill-opacity:1;stroke-width:0.184968;stroke-linejoin:round;stroke-miterlimit:14.4;paint-order:markers stroke fill"
         x="31.056437"
         y="98.19973"
         id="text31"><tspan
           sodipodi:role="line"
           id="tspan31"
           style="font-style:normal;font-variant:normal;font-weight:normal;font-stretch:normal;font-size:7.05556px;font-family:Montserrat;-inkscape-font-specification:Montserrat;letter-spacing:0px;fill:url(#linearGradient40);stroke-width:0.184968"
           x="31.056437"
           y="98.19973">Telegram-канали</tspan></text><text
         xml:space="preserve"
         style="font-style:normal;font-variant:normal;font-weight:normal;font-stretch:normal;font-size:7.05556px;line-height:1;font-family:Montserrat;-inkscape-font-specification:Montserrat;text-align:start;letter-spacing:0px;text-anchor:start;fill:url(#linearGradient42);fill-opacity:1;stroke-width:0.184968;stroke-linejoin:round;stroke-miterlimit:14.4;paint-order:markers stroke fill"
         x="31.056437"
         y="107.07557"
         id="text32"><tspan
           sodipodi:role="line"
           id="tspan32"
           style="font-style:normal;font-variant:normal;font-weight:normal;font-stretch:normal;font-size:7.05556px;font-family:Montserrat;-inkscape-font-specification:Montserrat;letter-spacing:0px;fill:url(#linearGradient42);stroke-width:0.184968"
           x="31.056437"
           y="107.07557">Канали Дирекції</tspan></text><text
         xml:space="preserve"
         style="font-style:normal;font-variant:normal;font-weight:normal;font-stretch:normal;font-size:7.05556px;line-height:1;font-family:Montserrat;-inkscape-font-specification:Montserrat;text-align:start;letter-spacing:0px;text-anchor:start;fill:url(#linearGradient44);fill-opacity:1;stroke-width:0.184968;stroke-linejoin:round;stroke-miterlimit:14.4;paint-order:markers stroke fill"
         x="31.056437"
         y="115.66213"
         id="text33"><tspan
           sodipodi:role="line"
           id="tspan33"
           style="font-style:normal;font-variant:normal;font-weight:normal;font-stretch:normal;font-size:7.05556px;font-family:Montserrat;-inkscape-font-specification:Montserrat;letter-spacing:0px;fill:url(#linearGradient44);stroke-width:0.184968"
           x="31.056437"
           y="115.66213">Оголошення та розваги</tspan></text><g
         id="g58"
         transform="translate(-357.21173,-844.40149)"><rect
           style="fill:none;fill-opacity:1;stroke:#f0f0f0;stroke-width:0.382767;stroke-linejoin:round;stroke-miterlimit:14.4;stroke-opacity:1;paint-order:markers stroke fill"
           id="rect2"
           width="51.416145"
           height="15.341422"
           x="383.52313"
           y="1102.5256"
           ry="7.670711" /><text
           xml:space="preserve"
           style="font-weight:bold;font-size:6.58028px;line-height:1;font-family:Montserrat;-inkscape-font-specification:'Montserrat Bold';text-align:center;letter-spacing:-0.265268px;text-anchor:middle;fill:#d9d9d9;fill-opacity:1;stroke:none;stroke-width:0.0822275;stroke-linejoin:round;stroke-miterlimit:14.4;stroke-opacity:1;paint-order:markers stroke fill"
           x="409.29041"
           y="1112.0225"
           id="text58"><tspan
             sodipodi:role="line"
             id="tspan57"
             style="text-align:center;text-anchor:middle;fill:#d9d9d9;fill-opacity:1;stroke:none;stroke-width:0.0822275"
             x="409.15778"
             y="1112.0225">На початок</tspan></text></g></g><g
       id="Header"
       style="display:inline;opacity:1"><rect
         style="fill:#0f0f0f;fill-opacity:1;stroke:none;stroke-width:1.03225;stroke-linecap:square;stroke-linejoin:round;stroke-miterlimit:14.4;paint-order:stroke fill markers;filter:url(#filter16)"
         id="rect4"
         width="508"
         height="43.888924"
         x="0"
         y="0"
         inkscape:export-filename="Картинки/гуртожиток макет меню головної сторінки.png"
         inkscape:export-xdpi="192.00002"
         inkscape:export-ydpi="192.00002"
         transform="matrix(1,0,0,0.71175381,-1.4454126e-6,1.4147088e-6)" /><rect
         style="fill:#0f0f0f;fill-opacity:1;stroke:none;stroke-width:0.870863;stroke-linecap:square;stroke-linejoin:round;stroke-miterlimit:14.4;paint-order:stroke fill markers"
         id="rect14"
         width="508"
         height="31.23811"
         x="-3.3378601e-06"
         y="7.1054274e-15"
         inkscape:export-filename="Картинки/гуртожиток макет меню головної сторінки.png"
         inkscape:export-xdpi="192.00002"
         inkscape:export-ydpi="192.00002" /><g
         id="g17"
         transform="translate(197.5127)"
         style="display:inline;opacity:1"><rect
           style="fill:#0f0f0f;fill-opacity:1;stroke-width:0.301201;stroke-linejoin:round;stroke-miterlimit:14.4;paint-order:markers stroke fill"
           id="rect7"
           width="41.925224"
           height="31.23811"
           x="248.91994"
           y="2.6429606e-07" /><text
           xml:space="preserve"
           style="font-style:normal;font-variant:normal;font-weight:600;font-stretch:normal;font-size:11.804px;line-height:1;font-family:Montserrat;-inkscape-font-specification:'Montserrat Semi-Bold';text-align:start;letter-spacing:-0.483694px;text-anchor:start;white-space:pre;inline-size:79.4296;display:inline;fill:url(#linearGradient17);stroke-width:0.149936;stroke-linejoin:round;stroke-miterlimit:14.4;paint-order:markers stroke fill"
           x="128.47249"
           y="21.304411"
           id="text17"
           transform="matrix(0.49312317,0,0,0.49312317,191.24657,4.4235883)"><tspan
             x="128.47249"
             y="21.304411"
             id="tspan7">Зв'язатися з </tspan><tspan
             x="128.47249"
             y="33.108412"
             id="tspan8">нами</tspan></text></g><g
         id="g4"><rect
           style="fill:#0f0f0f;fill-opacity:1;stroke-width:0.301201;stroke-linejoin:round;stroke-miterlimit:14.4;paint-order:markers stroke fill"
           id="rect20"
           width="41.925224"
           height="31.23811"
           x="248.91994"
           y="2.6429606e-07" /><text
           xml:space="preserve"
           style="font-style:normal;font-variant:normal;font-weight:600;font-stretch:normal;font-size:11.804px;line-height:1;font-family:Montserrat;-inkscape-font-specification:'Montserrat Semi-Bold';text-align:start;letter-spacing:-0.483694px;text-anchor:start;white-space:pre;inline-size:79.4296;display:inline;fill:url(#linearGradient18);stroke-width:0.149936;stroke-linejoin:round;stroke-miterlimit:14.4;paint-order:markers stroke fill"
           x="128.47249"
           y="21.304411"
           id="text20"
           transform="matrix(0.49312317,0,0,0.49312317,191.24657,4.4235883)"><tspan
             x="128.47249"
             y="21.304411"
             id="tspan9">Часті </tspan><tspan
             x="128.47249"
             y="33.108412"
             id="tspan10">запитання</tspan></text></g><g
         id="g3"
         style="display:inline;opacity:1"><rect
           style="fill:#0f0f0f;fill-opacity:1;stroke-width:0.320926;stroke-linejoin:round;stroke-miterlimit:14.4;paint-order:markers stroke fill"
           id="rect19"
           width="47.596081"
           height="31.23811"
           x="201.32387"
           y="2.6429606e-07" /><text
           xml:space="preserve"
           style="font-style:normal;font-variant:normal;font-weight:600;font-stretch:normal;font-size:11.804px;line-height:1;font-family:Montserrat;-inkscape-font-specification:'Montserrat Semi-Bold';text-align:start;letter-spacing:-0.483694px;text-anchor:start;white-space:pre;inline-size:79.4296;display:inline;fill:url(#linearGradient19);stroke-width:0.149936;stroke-linejoin:round;stroke-miterlimit:14.4;paint-order:markers stroke fill"
           x="128.47249"
           y="21.304411"
           id="text19"
           transform="matrix(0.49312317,0,0,0.49312317,143.70615,4.4294091)"><tspan
             x="128.47249"
             y="21.304411"
             id="tspan11">Інструкції та </tspan><tspan
             x="128.47249"
             y="33.108412"
             id="tspan12">настанови</tspan></text></g><g
         id="g2"
         style="display:inline;opacity:1"><rect
           style="fill:#0f0f0f;fill-opacity:1;stroke-width:0.362832;stroke-linejoin:round;stroke-miterlimit:14.4;paint-order:markers stroke fill"
           id="rect18"
           width="60.837852"
           height="31.23811"
           x="140.48601"
           y="2.6429606e-07" /><text
           xml:space="preserve"
           style="font-style:normal;font-variant:normal;font-weight:600;font-stretch:normal;font-size:11.804px;line-height:1;font-family:Montserrat;-inkscape-font-specification:'Montserrat Semi-Bold';text-align:start;letter-spacing:-0.483694px;text-anchor:start;white-space:pre;inline-size:107.885;display:inline;fill:url(#linearGradient20);stroke-width:0.149936;stroke-linejoin:round;stroke-miterlimit:14.4;paint-order:markers stroke fill"
           x="128.47249"
           y="21.304411"
           id="text18"
           transform="matrix(0.49312317,0,0,0.49312317,82.975673,3.6843434)"><tspan
             x="128.47249"
             y="21.304411"
             id="tspan13">Студентське </tspan><tspan
             x="128.47249"
             y="33.108412"
             id="tspan14">самоврядування</tspan></text></g><g
         id="g7"
         inkscape:label="navigation-block"><rect
           style="display:inline;opacity:1;fill:#1a1a1a;stroke-width:0.315316;stroke-linejoin:round;stroke-miterlimit:14.4;paint-order:markers stroke fill"
           id="rect16"
           width="45.946758"
           height="31.23811"
           x="94.539261"
           y="2.6429606e-07" /><g
           id="g1"
           inkscape:label="dropdown"><g
             id="g5"
             inkscape:label="dropdown-content"
             style="display:inline;opacity:1"><rect
               style="fill:#1a1a1a;stroke-width:0.541684;stroke-linejoin:round;stroke-miterlimit:14.4;paint-order:markers stroke fill"
               id="rect16-6"
               width="106.7846"
               height="39.666985"
               x="94.539261"
               y="31.23811" /><g
               id="g6"
               style="display:inline;opacity:1"
               inkscape:label="dropdown-element"><rect
                 style="fill:#1a1a1a;fill-opacity:1;stroke-width:2.15842;stroke-linejoin:round;stroke-miterlimit:14.4;paint-order:markers stroke fill"
                 id="rect6"
                 width="106.78459"
                 height="22.592564"
                 x="94.539261"
                 y="48.312531" /><text
                 xml:space="preserve"
                 style="font-style:normal;font-variant:normal;font-weight:600;font-stretch:normal;font-size:11.804px;line-height:1;font-family:Montserrat;-inkscape-font-specification:'Montserrat Semi-Bold';text-align:start;letter-spacing:-0.483694px;text-anchor:start;white-space:pre;inline-size:192.381;display:inline;fill:url(#linearGradient23);stroke-width:0.149936;stroke-linejoin:round;stroke-miterlimit:14.4;paint-order:markers stroke fill"
                 x="128.47249"
                 y="21.304411"
                 id="text6"
                 transform="matrix(0.49312317,0,0,0.49312317,36.900437,48.410435)"><tspan
                   x="128.47249"
                   y="21.304411"
                   id="tspan15">Рекомендації та корисні </tspan><tspan
                   x="128.47249"
                   y="33.108412"
                   id="tspan16">посилання</tspan></text></g><g
               id="g305"
               inkscape:label="dropdown-element"><rect
                 style="fill:#252525;fill-opacity:1;stroke-width:1.8764;stroke-linejoin:round;stroke-miterlimit:14.4;paint-order:markers stroke fill"
                 id="rect5"
                 width="106.78459"
                 height="17.074421"
                 x="94.539261"
                 y="31.23811" /><text
                 xml:space="preserve"
                 style="font-style:normal;font-variant:normal;font-weight:600;font-stretch:normal;font-size:11.804px;line-height:1;font-family:Montserrat;-inkscape-font-specification:'Montserrat Semi-Bold';text-align:start;letter-spacing:-0.483694px;text-anchor:start;white-space:pre;inline-size:192.381;display:inline;fill:url(#linearGradient22);stroke-width:0.149936;stroke-linejoin:round;stroke-miterlimit:14.4;paint-order:markers stroke fill"
                 x="128.47249"
                 y="21.304411"
                 id="text16-5"
                 transform="matrix(0.49312317,0,0,0.49312317,36.900437,31.336014)"><tspan
                   x="128.47249"
                   y="21.304411"
                   id="tspan17">Основне про гуртожиток</tspan></text></g></g><text
             xml:space="preserve"
             style="display:inline;opacity:1;font-style:normal;font-variant:normal;font-weight:600;font-stretch:normal;font-size:11.804px;line-height:1;font-family:Montserrat;-inkscape-font-specification:'Montserrat Semi-Bold';text-align:start;letter-spacing:-0.483694px;text-anchor:start;white-space:pre;inline-size:78.2452;fill:url(#linearGradient21);stroke-width:0.149936;stroke-linejoin:round;stroke-miterlimit:14.4;paint-order:markers stroke fill"
             x="128.47249"
             y="21.304411"
             id="text16"
             transform="matrix(0.49312317,0,0,0.49312317,36.900435,3.6552391)"><tspan
               x="128.47249"
               y="21.304411"
               id="tspan18">Про </tspan><tspan
               x="128.47249"
               y="33.108412"
               id="tspan19">гуртожиток</tspan></text></g></g><g
         id="g24"
         transform="matrix(0.71175383,0,0,0.71175383,4.7683716e-6,2.6429605e-7)"
         style="display:inline;opacity:1"
         inkscape:label="logo-div"><rect
           style="fill:#0f0f0f;fill-opacity:1;stroke-width:0.573836;stroke-linejoin:round;stroke-miterlimit:14.4;paint-order:markers stroke fill"
           id="rect23"
           width="132.82578"
           height="43.888924"
           x="-6.6994676e-06"
           y="0"
           inkscape:label="background" /><path
           id="text6726-2-5"
           style="font-weight:bold;font-size:8.20065px;line-height:0.8;font-family:'URW Gothic';-inkscape-font-specification:'URW Gothic Bold';fill:#ffffff;fill-opacity:1;stroke:none;stroke-width:0.569346;stroke-linecap:round;stroke-miterlimit:9.1;stroke-dashoffset:135.892;paint-order:fill markers stroke"
           d="m 42.437968,11.444626 -8.697276,0.0029 -6.146685,6.152475 0.0029,8.697286 6.152494,6.14669 8.697277,-0.0029 6.147409,-6.152475 -0.0036,-8.696568 z m 12.319508,0 c -0.938905,0 -1.743919,0.376978 -2.297201,1.064388 -0.427536,0.536509 -0.670866,1.224377 -0.670866,1.878254 0,0.620375 0.218134,1.273925 0.595356,1.802066 0.553285,0.754479 1.383179,1.165284 2.364001,1.165284 0.670646,0 1.291133,-0.209178 1.777354,-0.603347 0.360472,-0.285005 0.57032,-0.553341 0.838581,-1.073082 h -1.224112 c -0.368856,0.444307 -0.804746,0.653452 -1.366415,0.653452 -1.073033,0 -1.936356,-0.871324 -1.936356,-1.944373 0,-1.06465 0.854609,-1.919632 1.927646,-1.919632 0.570049,0 1.031547,0.226501 1.433937,0.704243 h 1.189983 C 57.14628,12.660505 56.961965,12.408511 56.635026,12.123473 56.123659,11.679167 55.47004,11.444626 54.757476,11.444626 Z m 32.844763,0 c -0.938908,0 -1.743919,0.376978 -2.297204,1.064388 -0.427536,0.536509 -0.670137,1.224377 -0.670137,1.878254 0,0.620375 0.218133,1.273925 0.595356,1.802066 0.553282,0.754479 1.383175,1.165284 2.363997,1.165284 0.670647,0 1.290411,-0.209178 1.776629,-0.603347 0.360472,-0.285005 0.57032,-0.553341 0.838581,-1.073082 h -1.224109 c -0.368855,0.444307 -0.804749,0.653452 -1.366415,0.653452 -1.073036,0 -1.936359,-0.871324 -1.936359,-1.944373 0,-1.06465 0.855338,-1.919632 1.928371,-1.919632 0.570052,0 1.030822,0.226501 1.433212,0.704243 h 1.190712 C 89.991769,12.660505 89.806728,12.408511 89.479786,12.123473 88.968419,11.679167 88.3148,11.444626 87.602239,11.444626 Z M 57.624624,11.54562 v 1.022258 h 1.04768 v 4.652474 h 1.04768 v -4.652474 h 1.056394 V 11.54562 Z m 3.461775,0 2.179584,4.232811 -0.670141,1.441921 h 1.15659 l 2.565112,-5.674732 h -1.148602 l -1.315591,3.017422 -1.492745,-3.017422 z m 7.343932,0 -2.104077,4.652474 h -0.545258 v 2.095373 h 1.04768 v -1.073115 h 4.107955 v 1.073115 h 1.047683 V 16.198094 H 71.45648 L 69.352407,11.54562 Z m 4.11594,0 v 5.674732 h 3.04285 v -1.022258 h -1.99517 v -1.299615 h 1.911673 v -1.023011 h -1.911673 v -1.30759 h 1.99517 V 11.54562 Z m 3.990334,0 v 5.674732 h 1.047684 V 14.83968 h 2.079387 v 2.380672 h 1.047681 V 11.54562 h -1.047681 v 2.271769 H 77.584289 V 11.54562 Z m 4.744696,0 v 1.022258 h 1.047683 v 4.652474 h 1.048406 v -4.652474 h 1.056394 V 11.54562 Z m 9.632422,0 v 5.674732 h 1.894246 c 1.11495,0 1.878276,-0.712414 1.878276,-1.751929 0,-1.081417 -0.713025,-1.743236 -1.878276,-1.743236 H 91.961403 V 11.54562 Z m 4.451373,0 v 5.674732 h 1.04768 v -2.480881 l 1.768644,2.480881 h 1.257505 L 97.293467,14.336509 99.438925,11.54562 H 98.18142 l -1.768644,2.46418 v -2.46418 z m 6.656364,0 -2.363993,5.674732 h 1.156583 l 0.58665,-1.466598 h 2.08737 l 0.57866,1.466598 h 1.1653 l -2.364,-5.674732 z m -60.201354,1.394725 5.276157,5.271804 0.0029,7.458627 -5.272529,5.276184 -7.45792,0.0029 -5.276885,-5.271771 -0.0029,-7.459379 5.271802,-5.276183 z m 27.071263,0.06406 1.408525,3.193851 h -2.81705 z m 33.549021,0.0755 0.64545,1.651034 h -1.2909 z m -61.355766,1.635771 -0.0015,7.19e-4 -5.986231,0.0029 -4.232109,4.235033 0.0029,5.987682 4.235738,4.231373 5.986956,-0.0022 4.232834,-4.236472 -0.0029,-5.986212 z m 50.876779,0.03268 h 0.855279 c 0.502985,0 0.821157,0.285331 0.821157,0.729671 0,0.435907 -0.326546,0.720944 -0.821157,0.720944 h -0.855279 z m -51.348707,1.107923 v 7.19e-4 l 3.567776,3.56488 0.0029,5.043114 -3.564873,3.567037 -5.0431,0.0022 -3.567052,-3.564161 -0.0029,-5.043081 3.564148,-3.567789 z m -2.497591,2.051087 c -1.192896,0 -2.143281,0.950353 -2.143281,2.143255 0,0.580599 0.158397,0.939208 0.644001,1.456466 -0.358942,0.20068 -0.516871,0.327592 -0.675221,0.538731 -0.285024,0.348346 -0.443612,0.854622 -0.443612,1.361323 0,1.456825 1.129284,2.575992 2.607222,2.575992 1.477931,0 2.586894,-1.108937 2.586894,-2.586876 0,-0.559518 -0.168682,-1.0554 -0.474834,-1.414336 -0.158354,-0.179436 -0.306216,-0.295464 -0.622944,-0.474834 0.453942,-0.358936 0.654164,-0.823736 0.654164,-1.478234 0,-1.214048 -0.907822,-2.121487 -2.132389,-2.121487 z m 13.968353,1.183456 v 5.675484 h 1.04768 v -2.146197 h 0.536548 c 1.265846,0 2.037277,-0.662473 2.037277,-1.760656 0,-1.106583 -0.763048,-1.768631 -2.037277,-1.768631 z m 5.758979,0 -2.364,5.675484 h 1.156589 l 0.586643,-1.46735 h 2.087375 l 0.578658,1.46735 h 1.1653 l -2.364,-5.675484 z m 5.96009,0 -2.104074,4.652474 h -0.544532 v 2.096092 h 1.04768 v -1.073082 h 4.107955 v 1.073082 h 1.04768 v -2.096092 h -0.52856 l -2.104074,-4.652474 z m 6.010917,0 -2.364,5.675484 h 1.15659 l 0.586642,-1.46735 h 2.088102 l 0.577928,1.46735 h 1.165301 L 70.66001,19.090827 Z M 38.12527,19.195416 c 0.432822,0 0.781221,0.369329 0.781221,0.844392 0,0.475029 -0.348006,0.855275 -0.791386,0.855275 -0.45393,0 -0.802278,-0.369362 -0.802278,-0.844392 0,-0.485619 0.347956,-0.855275 0.812443,-0.855275 z m 15.005868,0.918454 h 0.620042 c 0.603583,0 0.905377,0.25134 0.905377,0.754347 0,0.477841 -0.310171,0.729704 -0.905377,0.729704 h -0.620042 z m 11.132427,0.435645 1.408525,3.193851 h -2.816321 z m -6.002201,0.0755 0.645451,1.651753 H 57.61591 Z m 11.971008,0 0.645451,1.651753 h -1.290905 z m -32.117267,1.621259 c 0.643955,0 1.171835,0.549223 1.171835,1.224834 0,0.696726 -0.506766,1.224115 -1.171835,1.224115 -0.686185,0 -1.213945,-0.538306 -1.213945,-1.234999 0,-0.686201 0.52776,-1.21395 1.213945,-1.21395 z m 33.081452,4.28772 c -1.651468,0 -2.967341,1.316578 -2.967341,2.96807 0,1.651459 1.316134,2.941922 2.992753,2.941922 1.676616,0 2.99275,-1.290463 2.99275,-2.941922 0,-1.676626 -1.316396,-2.96807 -3.018162,-2.96807 z m -19.113099,0.100994 v 5.675484 h 1.04768 v -4.652507 h 1.794056 v -1.022977 z m 3.143043,0 2.179584,4.233563 -0.67014,1.441921 h 1.156587 l 2.565114,-5.675484 h -1.148602 l -1.315591,3.018142 -1.492745,-3.018142 z m 5.826501,0 v 5.675484 h 1.04768 v -2.146197 h 0.536545 c 1.265846,0 2.037281,-0.662472 2.037281,-1.760656 0,-1.106583 -0.763052,-1.768631 -2.037281,-1.768631 z m 3.822617,0 v 1.022977 h 1.047683 v 4.652507 h 1.048406 v -4.652507 h 1.056394 v -1.022977 z m 9.514802,0 1.995168,2.758238 -2.037278,2.917246 h 1.257509 l 1.66046,-2.481633 v 2.481633 h 1.047683 v -2.481633 l 1.659735,2.481633 h 1.257508 l -2.037281,-2.942674 1.987183,-2.73281 h -1.20741 l -1.659735,2.46418 v -2.46418 H 77.26628 v 2.46418 l -1.66046,-2.46418 z m 7.536334,0 v 5.675484 h 1.048406 l 2.539702,-3.990361 v 3.990361 h 1.047681 v -5.675484 h -1.047681 l -2.539702,3.990328 v -3.990328 z m 5.197745,0 v 1.022977 h 1.047683 v 4.652507 h 1.048406 v -4.652507 h 1.055668 v -1.022977 z m 3.705003,0 v 5.675484 h 1.048406 v -2.481633 l 1.768641,2.481633 h 1.257508 l -2.146184,-2.883875 2.146184,-2.791609 H 93.64655 l -1.768641,2.46418 v -2.46418 z m 4.309066,0 2.179584,4.233563 -0.670137,1.441921 h 1.156586 l 2.565108,-5.675484 h -1.148598 l -1.316317,3.018142 -1.492019,-3.018142 z m -23.9166,0.922049 c 1.0898,0 1.944344,0.846647 1.944344,1.919664 0,1.098184 -0.854478,1.945092 -1.961045,1.945092 -1.073034,0 -1.928371,-0.863675 -1.928371,-1.945092 0,-1.081416 0.855269,-1.919664 1.945072,-1.919664 z m -9.121287,0.100994 h 0.620768 c 0.60358,0 0.905374,0.25134 0.905374,0.75438 0,0.477808 -0.310171,0.728919 -0.905374,0.728919 h -0.620768 z"
           inkscape:label="logo" /></g></g><rect
       style="fill:#0f0f0f;stroke-width:1.53485;stroke-miterlimit:14.4;paint-order:fill markers stroke;fill-opacity:1"
       id="rect1"
       width="34.848774"
       height="34.848774"
       x="-90.111572"
       y="1.4147088e-06" /><rect
       style="fill:#d9d9d9;stroke-width:1.53485;stroke-miterlimit:14.4;paint-order:fill markers stroke;fill-opacity:1"
       id="rect3"
       width="34.848774"
       height="34.848774"
       x="-90.111572"
       y="42.333336" /><rect
       style="fill:url(#linearGradient16);stroke-width:1.53485;stroke-miterlimit:14.4;paint-order:fill markers stroke;fill-opacity:1"
       id="rect8"
       width="34.848774"
       height="34.848774"
       x="-90.111572"
       y="84.666664" /><rect
       style="fill:#f2f2f2;stroke-width:1.53485;stroke-miterlimit:14.4;paint-order:fill markers stroke"
       id="rect9"
       width="34.848774"
       height="34.848774"
       x="-90.111572"
       y="126.99998" /></g></svg>
