<svg width="253" height="323" viewBox="0 0 253 323" fill="none" xmlns="http://www.w3.org/2000/svg">
<path opacity="0.441007" d="M454.651 -205.624L235.699 -253L47.3752 -131.663L0 87.295L121.335 275.624L340.288 323L528.625 201.665L576 -17.2923L454.651 -205.624ZM430.93 -171.346L534.978 -9.83772L494.361 177.947L332.844 281.995L145.076 241.379L41.0152 79.8683L81.6353 -107.93L243.139 -211.982L430.93 -171.346ZM402.7 -130.666L251.987 -163.248L122.333 -79.7219L89.7456 71.0219L173.272 200.665L324.006 233.283L453.679 149.733L486.261 -0.984589L402.7 -130.666ZM384.632 -104.528L454.993 4.6799L427.559 131.652L318.344 201.998L191.381 174.534L121.033 65.3305L148.467 -61.6417L257.672 -132.005L384.632 -104.528Z" fill="url(#paint0_linear_14_216)"/>
<defs>
<linearGradient id="paint0_linear_14_216" x1="-14.6366" y1="-139.064" x2="576.008" y2="209.121" gradientUnits="userSpaceOnUse">
<stop stop-color="#FF00FF"/>
<stop offset="1" stop-color="#FFCC00"/>
</linearGradient>
</defs>
</svg>
