<svg width="552" height="880" viewBox="0 0 552 880" fill="none" xmlns="http://www.w3.org/2000/svg">
<path opacity="0.35833" d="M936.845 171.429L559.812 0.0737305L172.034 145.529L0.679321 522.562L146.137 910.339L523.17 1081.69L910.97 936.249L1082.32 559.216L936.845 171.429ZM880.561 224.067L1005.29 556.617L858.354 879.977L525.782 1004.69L202.443 857.769L77.6919 525.209L224.638 201.825L557.188 77.096L880.561 224.067ZM813.623 286.506L554.086 168.608L287.119 268.73L169.2 528.313L269.332 795.255L528.894 913.225L795.903 813.069L913.802 553.53L813.623 286.506ZM770.74 326.652L855.091 551.516L755.793 770.17L530.917 854.486L312.286 755.138L227.958 530.286L327.256 311.632L552.12 227.282L770.74 326.652Z" fill="url(#paint0_linear_3_142)"/>
<defs>
<linearGradient id="paint0_linear_3_142" x1="-95.8401" y1="135.033" x2="1298.61" y2="1068.3" gradientUnits="userSpaceOnUse">
<stop stop-color="#FF00CC"/>
<stop offset="1" stop-color="#6600FF"/>
</linearGradient>
</defs>
</svg>
