<svg width="339" height="541" viewBox="0 0 339 541" fill="none" xmlns="http://www.w3.org/2000/svg">
<path opacity="0.583132" d="M266.225 85.9091L77.9672 0.349121L-115.655 72.9767L-201.215 261.234L-128.587 454.857L59.6713 540.417L253.305 467.794L338.865 279.537L266.225 85.9091ZM238.121 112.192L300.4 278.239L227.033 439.697L60.9755 501.97L-100.472 428.608L-162.762 262.556L-89.3896 101.086L76.6569 38.8074L238.121 112.192ZM204.698 143.369L75.108 84.5002L-58.1919 134.493L-117.071 264.106L-67.0733 397.394L62.5293 456.298L195.851 406.289L254.719 276.697L204.698 143.369ZM183.287 163.414L225.404 275.692L175.823 384.868L63.5394 426.969L-45.6259 377.363L-87.732 265.091L-38.1512 155.914L74.1268 113.797L183.287 163.414Z" fill="url(#paint0_linear_3_106)"/>
<defs>
<linearGradient id="paint0_linear_3_106" x1="274.334" y1="107.524" x2="-263.737" y2="487.157" gradientUnits="userSpaceOnUse">
<stop stop-color="#00FFFF"/>
<stop offset="1" stop-color="#0000FF"/>
</linearGradient>
</defs>
</svg>
