<svg width="81" height="81" viewBox="0 0 81 81" fill="none" xmlns="http://www.w3.org/2000/svg">
<path d="M56.7737 0.625244L23.6813 0.636745L0.290771 24.0476L0.302272 57.14L23.7133 80.5304L56.8057 80.5189L80.1982 57.108L80.1844 24.0156L56.7737 0.625244ZM54.4219 6.31624L74.4978 26.3757L74.5093 54.7564L54.4478 74.8323L26.0691 74.8438L5.99119 54.7842L5.97968 26.4015L26.0392 6.32559L54.4219 6.31624ZM51.6195 13.0725L28.8416 13.084L12.7379 29.2L12.7494 51.982L28.8653 68.0836L51.6474 68.0745L67.7532 51.9544L67.7417 29.1765L51.6237 13.0707L51.6195 13.0725ZM49.8291 17.4113L63.4049 30.9749L63.4164 50.1637L49.8508 63.7374L30.662 63.7466L17.0882 50.1832L17.0767 30.9943L30.6403 17.4185L49.8291 17.4113ZM40.3259 25.2123C35.7868 25.2123 32.1705 28.8285 32.1705 33.3676C32.1705 35.5769 32.7729 36.9427 34.6207 38.911C33.2549 39.6742 32.6522 40.1562 32.0496 40.9596C30.9651 42.2851 30.3637 44.2122 30.3637 46.1403C30.3637 51.6836 34.6612 55.9427 40.2849 55.9427C45.9085 55.9427 50.1261 51.723 50.1261 46.0994C50.1261 43.9704 49.4842 42.0836 48.3193 40.7179C47.7168 40.0349 47.1542 39.5938 45.9491 38.911C47.6764 37.5452 48.4402 35.7761 48.4402 33.2857C48.4402 28.6662 44.9854 25.2123 40.3259 25.2123ZM40.3647 30.1124C42.0116 30.1124 43.3371 31.519 43.3371 33.3266C43.3371 35.1342 42.0129 36.5797 40.3258 36.5797C38.5985 36.5797 37.2734 35.1752 37.2734 33.3676C37.2734 31.5198 38.5973 30.1124 40.3647 30.1124ZM40.3259 41.7216C42.7761 41.7216 44.7835 43.8113 44.7835 46.3821C44.7835 49.0332 42.8565 51.0405 40.3259 51.0405C37.7149 51.0405 35.7063 48.9923 35.7063 46.3411C35.7063 43.7301 37.7149 41.7216 40.3259 41.7216Z" fill="url(#paint0_linear_3_110)"/>
<defs>
<linearGradient id="paint0_linear_3_110" x1="0.290749" y1="40.5778" x2="80.1983" y2="40.5778" gradientUnits="userSpaceOnUse">
<stop stop-color="white"/>
</linearGradient>
</defs>
</svg>
